<!-- Generator: Adobe Illustrator 21.0.0, SVG Export Plug-In . SVG Version: 6.00 Build 0)  -->
<svg version="1.1" id="圖層_1" xmlns="http://www.w3.org/2000/svg" xmlns:xlink="http://www.w3.org/1999/xlink" x="0px" y="0px"
	 viewBox="0 0 14 24" style="enable-background:new 0 0 14 24;" xml:space="preserve">
<style type="text/css">
	.st0{fill:#fff;}
</style>
<g>
	<path class="st0" d="M14,12c0,0.2-0.1,0.4-0.2,0.6L2.5,23.8C2.4,23.9,2.2,24,2,24s-0.4-0.1-0.6-0.2l-1.2-1.2C0.1,22.4,0,22.2,0,22
		c0-0.2,0.1-0.4,0.2-0.6L9.7,12L0.2,2.5C0.1,2.4,0,2.2,0,2s0.1-0.4,0.2-0.6l1.2-1.2C1.6,0.1,1.8,0,2,0s0.4,0.1,0.6,0.2l11.2,11.2
		C13.9,11.6,14,11.8,14,12z"/>
</g>
</svg>
